# xmcd
#
# Track frame offsets:
#	180
#	12209
#	33847
#	50287
#	64542
#	81191
#	97460
#	112806
#	128975
#	153890
#	169924
#	185837
#	202252
#	223256
#	241891
#
# Disc length: 3531 seconds
#
# Revision: 0
# Processed by: cddbd v1.5.2PL0 Copyright (c) Steve Scherf et al.
# Submitted via: dBpowerAMP V4.0
#
DISCID=d20dc90f
DTITLE=조용필 - 조용필 베스트 CD2
DYEAR=1900
DGENRE=Other
TTITLE0=미워 미워 미워
TTITLE1=고추잠자리
TTITLE2=일편단심 민들레
TTITLE3=여와 남
TTITLE4=물망초
TTITLE5=길 잃은 철새
TTITLE6=님이여
TTITLE7=못 찾겠다 꾀꼬리
TTITLE8=생명
TTITLE9=보고 싶은 여인아
TTITLE10=자존심
TTITLE11=산장의 여인
TTITLE12=비련
TTITLE13=산유화
TTITLE14=친구여
EXTD=
EXTT0=
EXTT1=
EXTT2=
EXTT3=
EXTT4=
EXTT5=
EXTT6=
EXTT7=
EXTT8=
EXTT9=
EXTT10=
EXTT11=
EXTT12=
EXTT13=
EXTT14=
PLAYORDER=
